<?xml version="1.0" standalone="no"?><!DOCTYPE svg PUBLIC "-//W3C//DTD SVG 1.1//EN" "http://www.w3.org/Graphics/SVG/1.1/DTD/svg11.dtd"><svg t="1733064462239" class="icon" viewBox="0 0 1024 1024" version="1.1" xmlns="http://www.w3.org/2000/svg" p-id="3762" xmlns:xlink="http://www.w3.org/1999/xlink" width="200" height="200"><path d="M939.19232 759.40864a410.5216 410.5216 0 0 0 6.29248-71.02976c0-225.3312-182.66112-407.99744-408.00256-407.99744h-52.9408c-225.32608 0-407.99232 182.66624-407.99232 407.99744 0 24.23808 2.23744 47.9488 6.29248 71.02976h856.35072z" fill="#CC1A1C" p-id="3763"></path><path d="M968.7296 784.34816c0 29.06112-23.552 52.608-52.608 52.608H105.90208c-29.056 0-52.608-23.552-52.608-52.608l-10.5216-43.36128c0-29.056 23.552-52.608 52.61312-52.608h831.2576c29.06112 0 52.608 23.55712 52.608 52.608l-10.5216 43.36128z" fill="#E8DE31" p-id="3764"></path><path d="M497.152 456.47872a3.42528 3.42528 0 0 0-5.20192 1.2032c-0.0256 0.04608-0.06144 0.0768-0.08704 0.11776l-7.22432 12.24704-10.85952-6.41024-1.7408 2.95424-4.66432 7.90016-5.10464-3.01056 13.63456-23.10656 0.06144-0.12288a3.4304 3.4304 0 0 0-1.47456-5.12512c-44.92288-18.92864-97.5104-1.49504-122.32704 40.5504-24.81664 42.05056-14.65856 96.51712 23.6288 126.68416a3.42016 3.42016 0 0 0 5.07392-0.9472c0.03584-0.06144 0.05632-0.128 0.09216-0.18944 0.03072-0.05632 0.0768-0.09728 0.10752-0.14848l13.63456-23.11168 5.10976 3.01568-4.66944 7.90528-1.7408 2.95424 10.85952 6.40512-7.22432 12.25216c-0.0256 0.04096-0.04096 0.09216-0.06144 0.128a3.4304 3.4304 0 0 0 1.45408 5.13024c44.97408 19.05664 97.64352 1.64864 122.50624-40.4736 24.8576-42.12224 14.63808-96.64-23.7824-126.80192z m-32.0256 35.31776l4.66432-7.90528 4.95104 2.92352-28.54912 48.38912-4.95616-2.92352 14.464-24.50944a3.4304 3.4304 0 0 0-5.90336-3.4816l-32.19968 54.56384a3.4304 3.4304 0 0 0 5.90336 3.48672l14.25408-24.15104 4.95104 2.92352-28.55424 48.384-4.95104-2.92352 4.66432-7.90528a3.40992 3.40992 0 0 0 0.37376-0.97792l1.21344-2.05824-10.8544-6.41024 47.77984-80.96256 10.85952 6.40512 1.21344-2.06336a3.6608 3.6608 0 0 0 0.67584-0.80384z m-69.89312 86.528a3.4304 3.4304 0 0 0-4.69504 1.20832l-13.5424 22.94272c-30.62784-26.368-39.9616-70.1696-23.41888-106.65472l53.34016 31.48288-28.74368 48.70656a73.0624 73.0624 0 0 1-13.2864-51.55328l24.51456 14.46912a3.4304 3.4304 0 0 0 3.48672-5.90848l-28.86144-17.02912c-0.06144-0.03584-0.13312-0.05632-0.19968-0.08704a3.29728 3.29728 0 0 0-0.3328-0.1536c-0.11264-0.04608-0.2304-0.0768-0.34816-0.10752-0.06656-0.02048-0.128-0.04608-0.2048-0.06144-0.03584-0.00512-0.06144 0-0.09728-0.01024-0.128-0.02048-0.25088-0.0256-0.37376-0.03584-0.1024-0.00512-0.20992-0.01536-0.31232-0.01024-0.10752 0-0.22016 0.02048-0.32768 0.03584-0.11264 0.01536-0.22528 0.0256-0.3328 0.0512a2.9696 2.9696 0 0 0-0.30208 0.09728l-0.31744 0.11264c-0.10752 0.04608-0.19968 0.1024-0.29184 0.1536-0.09728 0.05632-0.18944 0.10752-0.27648 0.16896-0.09216 0.06144-0.16896 0.13312-0.256 0.20992-0.08704 0.0768-0.17408 0.14848-0.25088 0.22528-0.07168 0.07168-0.128 0.1536-0.19456 0.23552a3.13856 3.13856 0 0 0-0.22528 0.3072c-0.01536 0.0256-0.04096 0.04608-0.05632 0.0768-0.03584 0.06144-0.05632 0.128-0.08704 0.19456a3.29728 3.29728 0 0 0-0.26112 0.68096l-0.06656 0.19968-0.03072 0.19968v0.01024c-4.4544 23.08608 1.85856 47.5904 16.91648 65.64864l0.02048 0.02048 0.11776 0.14848c0.04096 0.05632 0.09728 0.09728 0.14336 0.14336 0.09216 0.09216 0.17408 0.1792 0.27136 0.26112 0.09728 0.08192 0.19456 0.14336 0.29696 0.21504 0.05632 0.04096 0.10752 0.09216 0.16896 0.128l0.09216 0.04096c0.11264 0.06144 0.2304 0.10752 0.34816 0.15872 0.09216 0.04096 0.18432 0.08192 0.27648 0.10752 0.11264 0.03584 0.22528 0.05632 0.34304 0.08192l0.3072 0.06144c0.11264 0.01024 0.2304 0.01024 0.34816 0.01024 0.1024 0 0.2048 0.00512 0.30208-0.00512 0.12288-0.00512 0.24576-0.03072 0.37376-0.05632 0.08704-0.02048 0.1792-0.03072 0.27136-0.05632 0.12288-0.03584 0.23552-0.08704 0.35328-0.12288 0.09216-0.04096 0.1792-0.07168 0.26624-0.11776a1.84832 1.84832 0 0 0 0.3072-0.1792c0.09216-0.06144 0.18432-0.10752 0.27136-0.18432l0.09216-0.06144a2.48832 2.48832 0 0 0 0.2304-0.23552l0.128-0.12288a3.26144 3.26144 0 0 0 0.38912-0.52736l0.02048-0.04096 33.024-55.96672 0.00512-0.00512a3.42528 3.42528 0 0 0-1.20832-4.68992L356.6592 489.68192c0.4608-0.8448 0.91648-1.68448 1.40288-2.51392 0.2304-0.38912 0.47616-0.75776 0.7168-1.14688l56.73984 33.4848a3.4304 3.4304 0 0 0 4.69504-1.2032v-0.01024l33.80736-57.28256 0.02048-0.03584a2.97472 2.97472 0 0 0 0.27136-0.59392l0.04608-0.16896c0.03072-0.10752 0.07168-0.20992 0.09216-0.32256l0.01024-0.10752 0.03072-0.32256c0.00512-0.11776 0.01536-0.24064 0.01024-0.3584 0-0.09728-0.01536-0.18944-0.03072-0.28672-0.01536-0.12288-0.03072-0.256-0.05632-0.37888l-0.08192-0.26112c-0.04096-0.12288-0.0768-0.24064-0.128-0.35328-0.04096-0.09728-0.09216-0.1792-0.14336-0.26624-0.05632-0.1024-0.11264-0.2048-0.1792-0.30208-0.06144-0.08704-0.13312-0.16384-0.19968-0.24064-0.0768-0.08704-0.14848-0.1792-0.23552-0.26112-0.07168-0.06656-0.1536-0.128-0.2304-0.18944-0.1024-0.08192-0.19456-0.15872-0.31232-0.22528l-0.0768-0.06144c-0.06656-0.04096-0.13312-0.06144-0.19456-0.09216-0.10752-0.0512-0.21504-0.10752-0.32768-0.14848-0.11776-0.04608-0.23552-0.0768-0.36352-0.11264l-0.19456-0.05632-0.18432-0.03072-0.03072-0.00512c-23.08096-4.4544-47.58528 1.86368-65.64864 16.92672h-0.00512l-0.15872 0.12288c-0.05632 0.0512-0.1024 0.10752-0.14848 0.15872a3.0208 3.0208 0 0 0-0.47104 0.55808c-0.03584 0.06144-0.08704 0.10752-0.12288 0.16896l-0.03584 0.08704a2.19136 2.19136 0 0 0-0.15872 0.35328c-0.03584 0.09216-0.08192 0.1792-0.10752 0.27648-0.03584 0.10752-0.05632 0.22016-0.08192 0.33792-0.02048 0.10752-0.04608 0.2048-0.05632 0.31232-0.01536 0.11264-0.01024 0.22528-0.01536 0.33792v0.31232a2.7392 2.7392 0 0 0 0.05632 0.34816c0.02048 0.1024 0.03072 0.19968 0.06144 0.29696 0.03072 0.11264 0.0768 0.22016 0.11776 0.32768a3.0208 3.0208 0 0 0 0.12288 0.29696l0.16384 0.26624c0.06656 0.10752 0.128 0.21504 0.20992 0.3072a0.78336 0.78336 0 0 0 0.05632 0.08192c0.04608 0.05632 0.10752 0.1024 0.1536 0.1536 0.08704 0.08704 0.16384 0.17408 0.26112 0.25088 0.09216 0.08192 0.19456 0.14848 0.29696 0.21504 0.06144 0.04096 0.10752 0.09216 0.17408 0.128l28.86144 17.03424a3.4304 3.4304 0 0 0 3.48672-5.90336l-24.51456-14.464a73.03168 73.03168 0 0 1 51.54816-13.29152l-29.52192 50.0224-53.48864-31.56992c23.7568-33.01888 67.23584-46.52544 105.60512-32.28672l-13.54752 22.94784a3.4304 3.4304 0 0 0 1.21344 4.69504l7.90528 4.66432-2.92352 4.95616-7.90528-4.66432a3.4304 3.4304 0 0 0-4.69504 1.20832L396.9536 568.6784a3.42016 3.42016 0 0 0 1.20832 4.68992l7.90528 4.66944-2.92864 4.95104-7.90528-4.66432z m124.26752-7.17824l-53.34528-31.48288 28.74368-48.70144a73.01632 73.01632 0 0 1 13.29152 51.55328l-24.51968-14.46912a3.4304 3.4304 0 0 0-3.48672 5.90336l28.87168 17.03424c0.06144 0.04096 0.128 0.06144 0.19456 0.09216 0.10752 0.0512 0.21504 0.10752 0.3328 0.14848 0.11776 0.0512 0.2304 0.08192 0.34816 0.10752 0.07168 0.02048 0.13312 0.0512 0.20992 0.06144a0.384 0.384 0 0 0 0.10752 0.01024c0.0768 0.02048 0.15872 0.02048 0.2304 0.03072a3.51744 3.51744 0 0 0 0.39936 0.01536l0.20992-0.01024a3.4304 3.4304 0 0 0 0.45056-0.07168c0.0512-0.01024 0.09728-0.01536 0.13824-0.03072a3.34336 3.34336 0 0 0 0.5632-0.2048l0.12288-0.06656c0.128-0.07168 0.26112-0.14848 0.38912-0.23552 0.06144-0.04096 0.11264-0.09216 0.16896-0.13312a4.01408 4.01408 0 0 0 0.45056-0.42496 3.33312 3.33312 0 0 0 0.63488-1.08032l0.07168-0.24064c0.0256-0.09216 0.05632-0.16896 0.0768-0.26112l0.03072-0.18944 0.00512-0.0256c4.46464-23.16288-1.8944-47.74912-17.05472-65.81248-0.05632-0.06656-0.11776-0.11264-0.1792-0.17408a2.33984 2.33984 0 0 0-0.2304-0.22016c-0.1024-0.09216-0.21504-0.16384-0.32256-0.23552-0.05632-0.03584-0.09728-0.08192-0.15872-0.11264l-0.0768-0.03584a3.01056 3.01056 0 0 0-0.36864-0.16896c-0.08704-0.03584-0.17408-0.0768-0.26624-0.10752-0.10752-0.03584-0.22016-0.05632-0.3328-0.08192-0.10752-0.02048-0.21504-0.04608-0.32256-0.05632-0.1024-0.01536-0.2048-0.01024-0.3072-0.01024-0.11776 0-0.23552-0.00512-0.35328 0.00512-0.1024 0.00512-0.19968 0.03072-0.30208 0.04608-0.11776 0.02048-0.2304 0.03584-0.34304 0.07168-0.09728 0.0256-0.18432 0.06656-0.27648 0.1024a2.92864 2.92864 0 0 0-0.34816 0.14336l-0.22016 0.13312a2.7392 2.7392 0 0 0-0.3584 0.24064l-0.06656 0.04608c-0.04608 0.03584-0.0768 0.08192-0.11776 0.12288a3.3024 3.3024 0 0 0-0.29696 0.30208l-0.18944 0.25088c-0.04608 0.07168-0.10752 0.128-0.14848 0.19968l-33.0496 56.00768a3.4304 3.4304 0 0 0 1.20832 4.69504l56.71424 33.46432c-0.4608 0.83968-0.9216 1.67936-1.408 2.5088s-0.9984 1.63328-1.52064 2.45248l-56.70912-33.46944a3.4304 3.4304 0 0 0-4.69504 1.20832l-33.0496 56.00256c-0.04096 0.07168-0.06656 0.1536-0.10752 0.2304-0.04608 0.09216-0.09216 0.1792-0.128 0.2816a3.76832 3.76832 0 0 0-0.12288 0.4096c-0.01024 0.05632-0.04096 0.10752-0.04608 0.15872l-0.01024 0.08192a3.1232 3.1232 0 0 0-0.04096 0.4352c0 0.08704-0.01024 0.16896-0.00512 0.256 0.00512 0.128 0.0256 0.256 0.04096 0.37888l0.04608 0.29184c0.0256 0.10752 0.07168 0.22528 0.10752 0.33792 0.03072 0.09216 0.05632 0.18944 0.1024 0.2816 0.0512 0.10752 0.10752 0.20992 0.17408 0.31744a4.1728 4.1728 0 0 0 0.14848 0.256 3.79904 3.79904 0 0 0 0.22016 0.26624l0.21504 0.24576c0.07168 0.07168 0.15872 0.128 0.24064 0.19456 0.09728 0.0768 0.19456 0.1536 0.3072 0.22528l0.07168 0.05632c0.06144 0.03584 0.128 0.05632 0.18944 0.08704 0.11264 0.06144 0.22528 0.10752 0.34816 0.15872a3.91168 3.91168 0 0 0 0.32256 0.1024l0.22016 0.07168c23.14752 4.54144 47.74912-1.77664 65.86368-16.88576l0.01024-0.00512c0.04608-0.0512 0.1024-0.08192 0.1536-0.12288 0.0768-0.06656 0.13312-0.13312 0.2048-0.2048l0.16384-0.16384a3.34848 3.34848 0 0 0 0.64-1.08544 3.06176 3.06176 0 0 0 0.1536-0.59392c0.01024-0.07168 0.0256-0.13312 0.03072-0.2048a4.93568 4.93568 0 0 0 0.02048-0.47616v-0.12288a3.21536 3.21536 0 0 0-0.09728-0.5888c-0.01024-0.0512-0.03072-0.09216-0.04096-0.13312a4.608 4.608 0 0 0-0.25088-0.62464 3.3536 3.3536 0 0 0-0.20992-0.33792c-0.04096-0.07168-0.08704-0.128-0.13312-0.18944-0.02048-0.03072-0.03584-0.06656-0.06656-0.09728-0.04608-0.05632-0.1024-0.09728-0.1536-0.14336-0.08704-0.09216-0.16896-0.1792-0.26112-0.26112-0.09216-0.08192-0.19456-0.14848-0.29184-0.21504-0.06144-0.04096-0.11776-0.09728-0.1792-0.128l-28.86656-17.03424a3.4304 3.4304 0 1 0-3.4816 5.90336l24.51968 14.46912a73.04704 73.04704 0 0 1-51.5584 13.2864l28.74368-48.71168 53.3504 31.488c-23.9872 32.1792-66.9184 45.1584-104.8576 30.99136l7.14752-12.11904a3.4304 3.4304 0 0 0-1.20832-4.69504l-7.90016-4.66432 2.92352-4.95104 7.90016 4.66432a3.4304 3.4304 0 0 0 4.69504-1.21344L482.37568 487.3728a3.4304 3.4304 0 0 0-1.20832-4.69504l-7.9104-4.66432 2.92352-4.95104 7.90528 4.66432a3.4304 3.4304 0 0 0 4.69504-1.20832l7.15264-12.11904c30.75584 26.33728 40.15616 70.1952 23.56736 106.74688z" fill="#E8DE31" opacity=".6" p-id="3765"></path><path d="M524.59008 290.47808l0.06144 0.21504a2.2016 2.2016 0 0 0 0.08192 0.35328c0.03072 0.11776 0.08192 0.2304 0.128 0.34304 0.03072 0.06656 0.04096 0.128 0.07168 0.19968l0.06144 0.0768a2.176 2.176 0 0 0 0.20992 0.32256c0.0512 0.08192 0.10752 0.16384 0.16896 0.24064 0.07168 0.08704 0.15872 0.16896 0.24064 0.25088 0.08192 0.07168 0.14848 0.14848 0.24064 0.21504 0.08192 0.07168 0.1792 0.13312 0.27136 0.19456 0.09216 0.05632 0.1792 0.11776 0.27136 0.16896 0.1024 0.0512 0.20992 0.1024 0.32256 0.13824 0.1024 0.03584 0.18944 0.08192 0.2816 0.10752 0.10752 0.03072 0.2304 0.0512 0.33792 0.0768l0.32256 0.05632 0.31232 0.00512c0.128 0 0.25088 0.00512 0.37888-0.01024h0.09216c0.08192-0.01024 0.13824-0.03584 0.20992-0.04608 0.11776-0.0256 0.24064-0.04608 0.3584-0.08192a4.61824 4.61824 0 0 0 0.33792-0.13312c0.07168-0.0256 0.13824-0.04096 0.19968-0.0768l23.99232-12.11392c-4.77184-0.25088-9.57952-0.32256-14.39232-0.41472l-8.18176 4.13184c-0.08192-1.43872-0.0512-2.88256-0.04096-4.32128h-6.89152c-0.01024 3.29728 0.128 6.59968 0.54784 9.89184 0 0-0.01024 0.00512 0 0.00512a0.90624 0.90624 0 0 0 0.00512 0.2048zM654.78144 334.4384c0.06144 0.08704 0.10752 0.1792 0.16896 0.26112 0.09216 0.11264 0.1792 0.22016 0.2816 0.32256l0.10752 0.128 0.06144 0.0512c0.10752 0.1024 0.22016 0.18432 0.33792 0.27136 0.08192 0.04608 0.13824 0.1024 0.20992 0.14336 0.10752 0.06656 0.2304 0.11776 0.34816 0.17408 0.08192 0.03584 0.16896 0.08192 0.26112 0.11776 0.10752 0.03584 0.2304 0.06144 0.34816 0.09216 0.1024 0.02048 0.18944 0.05632 0.29184 0.06656 0.11776 0.01536 0.24064 0.02048 0.3584 0.0256 0.09216 0.00512 0.19968 0.01536 0.29184 0.01024a8.35584 8.35584 0 0 0 0.67072-0.09216c0.1024-0.02048 0.19968-0.06144 0.29184-0.09728 0.11776-0.04096 0.24064-0.08192 0.3584-0.13312 0.02048-0.01536 0.06144-0.02048 0.08192-0.03072 0.06144-0.03584 0.11776-0.08192 0.1792-0.11264a3.4304 3.4304 0 0 0 0.32256-0.20992c0.09216-0.06656 0.16896-0.14336 0.26112-0.22016l0.1792-0.14848c7.6288-7.97184 13.3376-17.52576 17.05984-27.79648-2.12992-0.81408-4.23936-1.67936-6.38976-2.4576a72.54016 72.54016 0 0 1-12.36992 21.8368l-15.52896-30.73536c-2.99008-0.84992-5.9392-1.7664-8.96-2.54976l20.64896 40.87808 0.128 0.2048z" fill="#E8DE31" opacity=".5" p-id="3766"></path><path d="M634.99776 373.01248a3.4304 3.4304 0 0 0 2.11968-4.36224c-0.06144-0.14848-0.11776-0.29184-0.18944-0.42496-0.03072-0.06144-0.07168-0.11264-0.10752-0.1792-0.03072-0.05632-0.04096-0.11264-0.07168-0.17408l-12.09856-23.94624 5.2992-2.67264 4.14208 8.19712 1.54112 3.06176 11.25888-5.68832 6.41024 12.69248c0.02048 0.04096 0.0512 0.08192 0.08192 0.12288a3.4304 3.4304 0 0 0 5.09952 1.54624c17.18784-11.76064 29.50144-28.29312 36.31104-46.75584-2.08896-0.91136-4.16768-1.84832-6.28224-2.72896a90.496 90.496 0 0 1-30.70976 41.53344l-6.33856-12.55936a3.4304 3.4304 0 0 0-4.608-1.51552l-8.192 4.14208-2.59072-5.13024 8.192-4.13696a3.42528 3.42528 0 0 0 1.5104-4.608l-19.08224-37.77536a411.14112 411.14112 0 0 0-8.68864-2.00704l20.11136 39.81824-5.13024 2.59072-4.14208-8.192a3.33824 3.33824 0 0 0-0.62976-0.8448l-1.08032-2.13504-11.24864 5.6832-20.82816-41.23648c-2.72896-0.42496-5.48864-0.7424-8.23808-1.11616l24.4992 48.50176a3.41504 3.41504 0 0 0 4.59776 1.51552l8.20224-4.14208 2.59072 5.13536-8.192 4.13696a3.4304 3.4304 0 0 0-1.52064 4.60288l12.02176 23.7824c-38.72768 11.56096-80.64-4.21376-102.44096-37.82656l55.29088-27.92448 25.4976 50.47808a73.00096 73.00096 0 0 1-50.57024-16.62976l25.40032-12.83072a3.4304 3.4304 0 0 0-3.08736-6.1184l-29.91104 15.10912c-0.07168 0.03584-0.11776 0.08192-0.1792 0.11776a2.9184 2.9184 0 0 0-0.31232 0.19968c-0.1024 0.07168-0.18944 0.1536-0.2816 0.23552-0.0512 0.04608-0.10752 0.08192-0.15872 0.13824-0.03072 0.0256-0.04096 0.0512-0.06144 0.0768-0.09216 0.09728-0.15872 0.19456-0.2304 0.29696-0.06144 0.08192-0.128 0.16896-0.1792 0.256-0.06144 0.09728-0.1024 0.19968-0.14848 0.29696-0.0512 0.10752-0.1024 0.2048-0.128 0.3072-0.04096 0.09728-0.06144 0.2048-0.09216 0.3072l-0.07168 0.32256c-0.02048 0.11264-0.02048 0.22016-0.03072 0.32768 0 0.10752-0.01024 0.21504 0 0.32256 0 0.10752 0.02048 0.21504 0.03072 0.32768 0.02048 0.11264 0.03072 0.22528 0.06144 0.3328 0.02048 0.1024 0.06144 0.19456 0.09216 0.29184l0.13824 0.35328 0.03072 0.09216c0.04096 0.06144 0.08192 0.11264 0.11776 0.1792 0.06144 0.10752 0.11776 0.20992 0.19968 0.31232 0.07168 0.1024 0.14848 0.18944 0.2304 0.27648l0.13824 0.16384a1.83296 1.83296 0 0 1 0.15872 0.13824c17.02912 16.2048 41.06752 24.11008 64.39936 21.17632h0.03072l0.18944-0.02048c0.07168-0.00512 0.128-0.03072 0.19968-0.04096 0.11776-0.0256 0.24064-0.0512 0.3584-0.08704s0.2304-0.08704 0.34816-0.13312c0.06144-0.0256 0.128-0.04096 0.18944-0.07168a0.89088 0.89088 0 0 0 0.09216-0.05632c0.10752-0.06144 0.20992-0.13312 0.32256-0.20992 0.08192-0.05632 0.15872-0.10752 0.24064-0.17408 0.09216-0.0768 0.16896-0.16384 0.25088-0.24576a3.03616 3.03616 0 0 0 0.22016-0.22528c0.07168-0.08704 0.128-0.18944 0.19968-0.28672 0.0512-0.08704 0.10752-0.16896 0.14848-0.256 0.07168-0.10752 0.10752-0.22528 0.15872-0.34304l0.1024-0.256c0.04096-0.12288 0.06144-0.24576 0.08192-0.36864 0.02048-0.09728 0.04096-0.18944 0.0512-0.28672 0.02048-0.11776 0.01024-0.23552 0.01024-0.3584 0-0.11264 0.01024-0.21504-0.01024-0.32768 0-0.03584 0.01024-0.07168 0-0.10752-0.01024-0.11264-0.04096-0.21504-0.07168-0.32256-0.02048-0.06144-0.02048-0.11776-0.04096-0.17408a3.15904 3.15904 0 0 0-0.2304-0.6144c-0.01024-0.01024-0.02048-0.02048-0.02048-0.03584l-29.312-58.00448 0.01024-0.00512a3.4304 3.4304 0 0 0-4.608-1.5104l-58.77248 29.69088c-0.4608-0.8448-0.9216-1.67936-1.36192-2.53952-0.19968-0.40448-0.37888-0.81408-0.57856-1.21856l58.79808-29.70624a3.4304 3.4304 0 0 0 1.52064-4.60288l-0.01024-0.00512-1.30048-2.57536c-2.71872-0.32256-5.43232-0.70144-8.17152-0.96768l1.81248 3.58912-55.43936 28.0064a90.58304 90.58304 0 0 1-6.28736-33.59744h-6.87104a97.29024 97.29024 0 0 0 10.41408 44.17536c22.016 43.56096 73.344 64.39424 119.41376 48.4352z" fill="#E8DE31" opacity=".5" p-id="3767"></path><path d="M618.77248 311.5264a3.4304 3.4304 0 0 0 1.52064-4.60288l-9.4976-18.79552c-2.7904-0.54784-5.62176-1.01376-8.43776-1.50528l11.82208 23.39328a3.40992 3.40992 0 0 0 4.59264 1.5104z" fill="#E8DE31" opacity=".5" p-id="3768"></path><path d="M85.80096 711.75168a3.4304 3.4304 0 0 0 5.10464 1.55136c40.30976-27.59168 54.07232-81.32096 32.01024-124.98432a97.24416 97.24416 0 0 0-24.54528-30.76608c-0.7936 2.3296-1.60768 4.63872-2.36032 6.9888a90.1888 90.1888 0 0 1 15.91808 18.42176l-24.43264 12.34944c-0.68096 2.88768-1.38752 5.77536-2.00704 8.68864l29.95712-15.1296c0.4608 0.83968 0.9216 1.67424 1.3568 2.5344s0.83456 1.72544 1.23904 2.60096l-33.9968 17.17248c-0.54272 2.80064-1.024 5.62176-1.50528 8.43776l38.17472-19.28192c14.1568 37.5552 1.92 80.70656-30.48448 105.00608l-6.34368-12.55424a3.4304 3.4304 0 0 0-4.60288-1.52064l-2.73408 1.3824c0.02048 2.53952 0.1024 5.0688 0.17408 7.59808l2.59584-1.31072 6.41024 12.69248a1.52576 1.52576 0 0 0 0.07168 0.12288z" fill="#E8DE31" opacity=".5" p-id="3769"></path><path d="M113.90976 622.40256c-0.01024-0.1024-0.04096-0.18944-0.06144-0.28672-0.01536-0.0768-0.0256-0.1536-0.0512-0.2304a3.32288 3.32288 0 0 0-1.13664-1.7152 2.93888 2.93888 0 0 0-0.38912-0.27136c-0.04096-0.02048-0.07168-0.0512-0.10752-0.07168a3.4304 3.4304 0 0 0-0.54784-0.24064l-0.13312-0.03072a2.93888 2.93888 0 0 0-0.45568-0.10752c-0.06656-0.01024-0.13312-0.02048-0.19968-0.02048a2.66752 2.66752 0 0 0-0.40448-0.01024c-0.08192 0-0.1536 0-0.2304 0.01024l-0.11264 0.00512c-0.0768 0.01024-0.13824 0.03584-0.20992 0.0512-0.11776 0.0256-0.23552 0.04608-0.3584 0.08704-0.11776 0.03072-0.22528 0.08192-0.33792 0.12288-0.06656 0.03072-0.14336 0.04608-0.2048 0.0768l-28.68224 14.4896c-0.31232 2.28864-0.60416 4.5824-0.87552 6.88128 0.86016 0.32256 1.8432 0.31744 2.72896-0.128l25.41056-12.84096a73.03168 73.03168 0 0 1-16.63488 50.58048l-12.77952-25.29792a401.19296 401.19296 0 0 0-1.00352 13.21984l9.93792 19.67104c0.04096 0.08192 0.09728 0.13824 0.13824 0.21504l0.16384 0.26624 0.27648 0.32256c0.04096 0.04096 0.07168 0.09216 0.11264 0.128 0.01536 0.02048 0.04096 0.03072 0.06144 0.0512 0.10752 0.1024 0.22016 0.1792 0.34304 0.27136 0.07168 0.04608 0.13824 0.1024 0.20992 0.13824 0.11264 0.07168 0.2304 0.11776 0.34816 0.17408 0.08704 0.03584 0.17408 0.08704 0.26112 0.11264 0.10752 0.04096 0.2304 0.06656 0.34816 0.09216 0.09728 0.0256 0.18944 0.06144 0.28672 0.07168 0.11776 0.02048 0.24064 0.02048 0.36352 0.0256 0.09728 0.00512 0.19968 0.01536 0.29184 0.01024 0.11776-0.00512 0.2304-0.0256 0.34304-0.04608l0.32256-0.0512c0.09728-0.02048 0.19968-0.06144 0.29696-0.09728l0.35328-0.13312c0.0256-0.01536 0.05632-0.02048 0.08704-0.03072 0.06144-0.04096 0.11264-0.08192 0.17408-0.11264 0.10752-0.06656 0.21504-0.128 0.32256-0.2048 0.09728-0.07168 0.17408-0.14848 0.26112-0.22016 0.06144-0.06144 0.11776-0.1024 0.1792-0.14848 16.31232-17.03936 24.2688-41.15968 21.31968-64.5632v-0.01536c-0.01536-0.07168-0.01536-0.14336-0.0256-0.19968zM78.19776 681.52832l-1.4592-2.88256c-0.06656 2.51904-0.17408 5.02784-0.19456 7.56224l0.13824-0.07168a3.42528 3.42528 0 0 0 1.51552-4.608z" fill="#E8DE31" opacity=".5" p-id="3770"></path><path d="M835.52256 672.8192l-0.2304-0.22016c-0.1024-0.09216-0.20992-0.15872-0.32256-0.24064-0.06144-0.03072-0.1024-0.08192-0.15872-0.10752-0.02048-0.02048-0.0512-0.0256-0.07168-0.04096-0.11776-0.06656-0.24064-0.11264-0.36864-0.16896l-0.27136-0.1024c-0.10752-0.04096-0.22016-0.06144-0.32768-0.08192a2.4576 2.4576 0 0 0-0.32768-0.06144c-0.1024-0.01536-0.19968-0.01024-0.30208-0.01024a2.7904 2.7904 0 0 0-0.3584 0c-0.1024 0.01024-0.19968 0.03072-0.30208 0.0512-0.10752 0.02048-0.2304 0.03584-0.33792 0.07168-0.1024 0.0256-0.18944 0.06656-0.2816 0.1024-0.11776 0.04096-0.2304 0.09216-0.34816 0.14336l-0.22016 0.13312a3.65568 3.65568 0 0 0-0.3584 0.24064l-0.06144 0.04608c-0.0512 0.03584-0.08192 0.08704-0.11776 0.12288-0.10752 0.09728-0.20992 0.18944-0.30208 0.30208l-0.1792 0.256c-0.0512 0.07168-0.10752 0.128-0.14848 0.19968l-33.0496 56.00256v0.00512a3.42528 3.42528 0 0 0 1.20832 4.68992l33.29024 19.65056h13.50144l-40.36096-23.808 28.7488-48.70656a73.0368 73.0368 0 0 1 13.29152 51.55328l-24.51968-14.46912a3.42016 3.42016 0 1 0-3.4816 5.89824l28.87168 17.03936c0.06144 0.03584 0.11776 0.05632 0.18944 0.08704a2.7136 2.7136 0 0 0 0.67584 0.26112c0.07168 0.01536 0.128 0.04608 0.20992 0.06144l0.10752 0.01024 0.2304 0.03072c0.13824 0.01024 0.27136 0.02048 0.39936 0.01024 0.07168 0 0.13824 0 0.20992-0.01024a2.74944 2.74944 0 0 0 0.45056-0.07168c0.0512-0.01024 0.1024-0.01024 0.13824-0.03072a3.38944 3.38944 0 0 0 0.56832-0.19968l0.11776-0.07168c0.128-0.07168 0.26112-0.14848 0.38912-0.23552 0.06144-0.04096 0.11776-0.09216 0.16896-0.13312a2.67776 2.67776 0 0 0 0.45056-0.41984 3.24608 3.24608 0 0 0 0.71168-1.32096c0.02048-0.09216 0.0512-0.16896 0.07168-0.26624l0.03072-0.18432c0-0.01024 0-0.02048 0.01024-0.03072 4.45952-23.15776-1.89952-47.74912-17.05984-65.81248-0.05632-0.0512-0.11776-0.1024-0.17408-0.16384zM703.4624 714.79296l24.50944 14.464a3.4304 3.4304 0 0 0 3.49184-5.90336l-28.87168-17.02912c-0.06144-0.04096-0.128-0.06144-0.18944-0.09216a3.38944 3.38944 0 0 0-0.33792-0.1536c-0.10752-0.04608-0.2304-0.0768-0.34816-0.10752-0.06144-0.02048-0.128-0.0512-0.19968-0.06144-0.04096-0.01024-0.06144-0.00512-0.1024-0.01024-0.11776-0.02048-0.25088-0.03072-0.36864-0.04096l-0.31232-0.01024a2.38592 2.38592 0 0 0-0.32768 0.04096 1.56672 1.56672 0 0 0-0.32768 0.0512c-0.1024 0.0256-0.20992 0.06144-0.31232 0.09728l-0.31232 0.11264c-0.10752 0.04608-0.19968 0.1024-0.29184 0.1536a3.72224 3.72224 0 0 0-0.2816 0.16896c-0.09216 0.06144-0.16896 0.13312-0.26112 0.2048l-0.25088 0.2304c-0.07168 0.07168-0.128 0.1536-0.18944 0.23552a4.36736 4.36736 0 0 0-0.2304 0.3072c-0.01024 0.03072-0.04096 0.0512-0.0512 0.08192-0.04096 0.06144-0.06144 0.128-0.09216 0.18944-0.06144 0.10752-0.10752 0.22016-0.15872 0.3328-0.04096 0.11264-0.07168 0.2304-0.1024 0.34816-0.02048 0.0768-0.0512 0.13312-0.07168 0.2048-0.01024 0.06656-0.01024 0.128-0.03072 0.19968v0.01024c-2.9184 15.1296-1.13152 30.83776 4.62848 44.9792h7.41888a73.00608 73.00608 0 0 1-6.02624-39.00416z" fill="#E8DE31" opacity=".6" p-id="3771"></path><path d="M868.27008 753.80736c12.2624-38.23616 0.06144-81.38752-32.55808-106.99264a3.41504 3.41504 0 0 0-5.1968 1.20832l-0.09216 0.11776-7.2192 12.24704-10.85952-6.41024-1.7408 2.95424-4.66944 7.90016-5.09952-3.01056 13.62944-23.10656 0.06144-0.12288a3.42528 3.42528 0 0 0-1.47968-5.12512c-44.91776-18.92352-97.5104-1.49504-122.32192 40.55552-14.62784 24.79616-17.01888 53.87776-8.7296 79.78496h7.19872c-7.5008-21.66784-6.89152-45.94176 2.94912-67.64544l53.3504 31.48288-21.3504 36.16256h7.97184l21.0176-35.63008h0.01024a3.4304 3.4304 0 0 0-1.20832-4.68992l-56.70912-33.46944c0.4608-0.83968 0.91136-1.67936 1.39776-2.51392 0.2304-0.38912 0.48128-0.75776 0.72192-1.14688l56.7296 33.47968a3.4304 3.4304 0 0 0 4.70016-1.2032v-0.01024l33.80224-57.28256 0.03072-0.03072a4.54144 4.54144 0 0 0 0.27136-0.59904l0.0512-0.16896c0.03072-0.1024 0.07168-0.2048 0.09216-0.32256 0.01024-0.03072 0-0.07168 0.01024-0.10752 0.02048-0.10752 0.02048-0.20992 0.03072-0.32256 0.01024-0.11776 0.02048-0.24064 0.01024-0.3584 0-0.09728-0.02048-0.18432-0.03072-0.2816a2.2528 2.2528 0 0 0-0.06144-0.37888c-0.02048-0.09216-0.0512-0.17408-0.08192-0.26112l-0.128-0.35328c-0.04096-0.09728-0.09216-0.17408-0.13824-0.26624-0.06144-0.1024-0.10752-0.2048-0.1792-0.30208-0.06144-0.09216-0.128-0.16384-0.19968-0.24576-0.08192-0.08704-0.14848-0.17408-0.24064-0.26112-0.07168-0.06656-0.14848-0.12288-0.2304-0.18944-0.1024-0.08192-0.18944-0.15872-0.31232-0.22528l-0.07168-0.06144c-0.07168-0.04096-0.13824-0.06144-0.19968-0.09216-0.10752-0.0512-0.20992-0.10752-0.32768-0.14848a1.90976 1.90976 0 0 0-0.3584-0.10752c-0.07168-0.02048-0.128-0.04608-0.19968-0.06144l-0.1792-0.03072-0.03072-0.00512c-23.08096-4.4544-47.5904 1.86368-65.64864 16.92672l-0.01024 0.00512-0.14848 0.12288c-0.06144 0.0512-0.1024 0.1024-0.14848 0.1536-0.09216 0.08704-0.1792 0.16384-0.26112 0.26624-0.08192 0.09216-0.14848 0.18944-0.22016 0.29184-0.04096 0.06144-0.08192 0.10752-0.11776 0.16896-0.02048 0.03072-0.03072 0.06144-0.04096 0.09216-0.07168 0.10752-0.10752 0.2304-0.15872 0.34816-0.04096 0.09216-0.08192 0.1792-0.10752 0.2816a1.80736 1.80736 0 0 0-0.08192 0.33792c-0.02048 0.1024-0.0512 0.19968-0.06144 0.31232s-0.01024 0.22528-0.01024 0.33792c0 0.10752-0.01024 0.20992 0 0.31232a3.55328 3.55328 0 0 0 0.0512 0.34816l0.06144 0.29696 0.11776 0.32768 0.128 0.29696c0.04608 0.09728 0.1024 0.1792 0.15872 0.27136 0.07168 0.10752 0.128 0.20992 0.20992 0.31232 0.02048 0.02048 0.03072 0.05632 0.0512 0.08192 0.0512 0.05632 0.10752 0.1024 0.15872 0.14848a2.29376 2.29376 0 0 0 0.5632 0.47104c0.06144 0.04096 0.10752 0.09216 0.16896 0.128l28.86144 17.03424a3.43552 3.43552 0 0 0 3.49184-5.90848l-24.51968-14.464a73.0624 73.0624 0 0 1 51.54816-13.29152l-29.52192 50.02752-53.48864-31.56992c23.76192-33.01888 67.24096-46.52544 105.61024-32.28672l-13.5424 22.94784a3.42528 3.42528 0 0 0 1.20832 4.68992l7.9104 4.66944-2.92864 4.95104-7.9104-4.6592a3.41504 3.41504 0 0 0-4.68992 1.20832l-48.18944 81.65376h7.9616l44.3904-75.22304 10.85952 6.40512 1.21856-2.05824a3.49696 3.49696 0 0 0 0.67072-0.79872l4.66944-7.90528 4.95104 2.92352-28.54912 48.384-4.96128-2.92352 14.46912-24.50944a3.42528 3.42528 0 1 0-5.89824-3.4816l-32.19968 54.55872a3.39968 3.39968 0 0 0 1.14176 4.62848h3.56864a3.30752 3.30752 0 0 0 1.18784-1.14688l14.24896-24.14592 4.95104 2.9184-13.19936 22.36928h7.9616l44.928-76.12416a3.43552 3.43552 0 0 0-1.20832-4.70016l-7.9104-4.6592 2.92864-4.95616 7.90016 4.66432a3.43552 3.43552 0 0 0 4.70016-1.20832l7.14752-12.11904c28.6208 24.54528 38.71232 64.25088 26.58816 99.10272h7.15776z" fill="#E8DE31" opacity=".6" p-id="3772"></path><path d="M790.66112 740.3264l-7.9616 13.48096h7.9616l4.16256-7.05024 11.95008 7.05024h13.48096l-24.89856-14.68928a3.42016 3.42016 0 0 0-4.69504 1.20832z" fill="#E8DE31" opacity=".6" p-id="3773"></path><path d="M505.16992 248.68864m-66.03264 0a66.03264 66.03264 0 1 0 132.06528 0 66.03264 66.03264 0 1 0-132.06528 0Z" fill="#E8DE31" p-id="3774"></path></svg>