<?xml version="1.0" standalone="no"?><!DOCTYPE svg PUBLIC "-//W3C//DTD SVG 1.1//EN" "http://www.w3.org/Graphics/SVG/1.1/DTD/svg11.dtd"><svg t="1733064511704" class="icon" viewBox="0 0 1024 1024" version="1.1" xmlns="http://www.w3.org/2000/svg" p-id="5485" xmlns:xlink="http://www.w3.org/1999/xlink" width="200" height="200"><path d="M511.480235 12.011025m30.16989 30.16989l439.575287 439.575287q30.169889 30.169889 0 60.339779l-439.575287 439.575287q-30.169889 30.169889-60.339779 0l-439.575287-439.575287q-30.169889-30.169889 0-60.339779l439.575287-439.575287q30.169889-30.169889 60.339779 0Z" fill="#C70F0F" p-id="5486"></path><path d="M512 1001.386667a77.653333 77.653333 0 0 1-55.253333-22.826667L44.8 567.04a77.866667 77.866667 0 0 1 0-110.293333L456.32 45.226667a79.786667 79.786667 0 0 1 110.506667 0l411.52 411.52a78.293333 78.293333 0 0 1 0 110.293333L566.826667 978.56A77.653333 77.653333 0 0 1 512 1001.386667z m0-947.84a47.36 47.36 0 0 0-33.28 13.653333L66.986667 478.72a46.933333 46.933333 0 0 0 0 66.346667l411.306666 411.52a48 48 0 0 0 66.346667 0l411.52-411.52a46.933333 46.933333 0 0 0 0-66.346667L544.64 67.2A46.506667 46.506667 0 0 0 512 53.546667z" fill="#7A0F0F" p-id="5487"></path><path d="M480.853333 483.84c-120.533333 62.293333-264.106667 64-159.573333-108.586667 18.56-34.133333 23.253333-1.493333 38.186667 5.76 37.546667-2.773333 80.64-16.853333 117.76-9.813333 52.906667-8.32 32.64 59.946667 39.68 94.72 16.426667 42.666667-4.906667 34.773333-36.053334 17.92z m-24.746666 123.946667c-206.08 87.253333-142.293333-87.04 15.786666-71.893334 4.266667 36.693333 41.813333 120.106667-15.786666 71.893334z m-122.453334-109.44c73.386667-10.453333 62.72-18.346667 12.8-46.933334 95.36-43.093333-5.12-91.946667-12.8 46.933334z m7.68 187.306666c10.88-25.6 151.466667-60.16 146.56-15.573333-47.146667-1.066667-118.826667 69.973333-146.56 15.573333z m109.653334-122.026666c-42.666667-4.693333-121.173333 64-39.893334 39.68 31.573333-5.973333 55.04 1.066667 39.466667-39.68z m-29.866667-85.333334c34.773333-8.106667 69.546667 3.413333 52.48-40.746666-22.613333 10.453333-61.013333 10.453333-52.906667 41.173333z m53.973333-46.933333c1.28-33.92 10.026667-55.466667-31.786666-36.48-58.026667 23.68 10.88 24.32 31.36 36.906667z m248.746667 13.866667c-34.346667 39.04-118.186667 106.666667-116.906667 139.52 28.16-29.013333 111.146667-39.04 80.853334 4.266666-100.906667 30.72-90.453333 29.653333-55.466667 119.253334-24.746667 0-85.333333-23.893333-54.613333-59.306667-42.666667-19.84-56.32-33.706667 4.053333-96.64-16.426667-13.013333-60.8-21.333333-47.36-49.493333 26.666667-28.586667 44.373333 24.96 57.6 36.48-6.826667-56.106667-17.493333-134.4 12.8-187.733334 61.866667-2.133333-7.04 158.506667 27.306667 143.146667 26.88-14.933333 58.24-55.466667 91.306666-49.066667z" fill="#FFAF37" p-id="5488"></path><path d="M115.2 499.84a7.04 7.04 0 0 1-5.546667-2.346667 7.68 7.68 0 0 1 0-10.88l122.24-122.24a7.68 7.68 0 0 1 11.093334 10.88l-122.24 122.24a7.68 7.68 0 0 1-5.546667 2.346667zM271.786667 343.253333a8.106667 8.106667 0 0 1-5.546667-2.346666 7.893333 7.893333 0 0 1 0-11.093334l34.773333-34.773333a7.893333 7.893333 0 1 1 11.093334 11.093333L277.333333 341.333333a7.68 7.68 0 0 1-5.546666 1.92z" fill="#FFFFFF" p-id="5489"></path></svg>