<?xml version="1.0" standalone="no"?><!DOCTYPE svg PUBLIC "-//W3C//DTD SVG 1.1//EN" "http://www.w3.org/Graphics/SVG/1.1/DTD/svg11.dtd"><svg t="1733064353662" class="icon" viewBox="0 0 1024 1024" version="1.1" xmlns="http://www.w3.org/2000/svg" p-id="1257" xmlns:xlink="http://www.w3.org/1999/xlink" width="200" height="200"><path d="M571.24 203.64L812.4 444.8c32.55 32.55 32.55 85.32 0 117.87l-241.16 241.16c-32.55 32.55-85.32 32.55-117.87-1e-8l-241.16-241.15999999c-32.55-32.55-32.55-85.32 0-117.87L453.38 203.64c32.55-32.55 85.32-32.55 117.86 0z" fill="#FA7268" p-id="1258"></path><path d="M607.25 518.17c6.07 0 10.99-4.92 10.99-10.99l0-120.89c0-6.07-4.92-10.99-10.99-10.99s-10.99 4.92-10.99 10.99L596.26 507.18c0 6.05999999 4.92 10.99 10.99 10.99zM529.84999999 639.14c-2.4-0.3-40.08-4.93-75.73999999-4.93-19.18 0-37.77 1.34-49.99 5.41-5.76 1.92-8.87 8.14-6.95 13.9 1.93 5.76 8.15 8.88 13.9 6.95 25.08-8.37 92.28-2.49 116.05 0.48 5.96000001 0.78 11.51-3.52 12.25999999-9.54 0.77-6.02-3.49999999-11.52-9.53-12.27zM591.76 551.96c-6.05 5.4-10.75 10.66-14.39 16.09-7.97000001 11.88-11.9 26.29-11.05 40.57 0.24 4.08 2.73 7.69 6.45 9.37a11.004 11.004 0 0 0 11.3-1.37c11.37-8.91 28.45-9.50999999 43.48000001-9.33 11.04 0.11 22.71 0.49 33.39999999 3.65a10.973 10.973 0 0 0 13.65-7.42999999c1.72-5.82-1.61-11.93-7.43-13.65000001-13.4-3.96-27.36-4.42-39.4-4.55-12.44-0.18-25.03 0.41-36.69 3.76a43.634 43.634 0 0 1 4.53-8.77c2.6-3.88 6.12999999-7.79 10.78999999-11.95 3.65999999-3.27 7.38-6.71 11.16000001-10.22 24.07-22.31 48.92-45.39 75.48-40.16 5.96 1.12 11.74-2.71 12.91-8.66s-2.71-11.73-8.66-12.91c-4.15-0.81-8.2-1.2-12.17-1.19999999-31.99 0-58.66 24.71-82.49000001 46.79999999-3.69 3.41-7.31 6.77-10.86999999 9.96zM484.53000001 628.06c21.21 0 38.47-17.26 38.46999999-38.47 0-21.21-17.26-38.46-38.47-38.46l-32.97 0c-21.21 0-38.47 17.26-38.47 38.46 0 21.21 17.26 38.47 38.47 38.47l32.97000001 0z m-49.45000001-38.46c0-9.09 7.39-16.48 16.48-16.48l32.97 1e-8c9.09 0 16.48 7.39 16.47999999 16.47999999s-7.39 16.48-16.47999999 16.47999999l-32.97 1e-8c-9.09 0-16.48-7.39-16.48-16.48zM444.24 539.9L482.70000001 539.9c50.36 0 91.34-40.98 91.33999999-91.34l0-3.66c0-50.37-40.98-91.35-91.34-91.35l-38.46 0c-50.37 0-91.35 40.98-91.35 91.35l0 3.66c0 50.36 40.98 91.34 91.35 91.34z m-69.85-94.99c0-38.52 31.33-69.85 69.85-69.85L482.70000001 375.06c38.51 0 69.84 31.33 69.83999999 69.85l0 3.66c0 38.51-31.33 69.84-69.84 69.84l-38.46 0c-38.52 0-69.85-31.33-69.85-69.84l0-3.66zM563.78 506.53c-4.65 3.89-5.27 10.83-1.38 15.48 8.51 10.18 20.98 16.56999999 34.22 17.52 6.18 0.46 11.32-4.11 11.76-10.16 0.44-6.06-4.11-11.32-10.16-11.76-7.22-0.52000001-14.31-4.15-18.95-9.71a10.95 10.95 0 0 0-8.43-3.94000001c-2.5 0.01-5 0.85-7.06 2.57000001zM636.27 642l-19.28-10.88c-1.71000001-0.96-3.56-1.42-5.39-1.42-3.84 0-7.56000001 2.01-9.58 5.59-2.98 5.29-1.11 11.99 4.17 14.97l19.27 10.87c5.28 3 11.99 1.12 14.97-4.16 2.99-5.28 1.13-11.99-4.16-14.97z" fill="#FFFFFF" p-id="1259"></path><path d="M453.64 451.98l0 44.2c0 5.93 4.81 10.75 10.75 10.75s10.75-4.81 10.75-10.75l0-44.2 55.19 0c5.93 0 10.75-4.81 10.75-10.75s-4.81-10.75-10.75-10.75l-55.19 0 0-33.21c0-5.93-4.81-10.75-10.75-10.75s-10.75 4.81-10.75 10.74999999l0 33.21000001-55.19 0c-5.93 0-10.75 4.81-10.75 10.75s4.81 10.75 10.75 10.75l55.19 0z" fill="#FFFFFF" p-id="1260"></path></svg>