<?xml version="1.0" standalone="no"?><!DOCTYPE svg PUBLIC "-//W3C//DTD SVG 1.1//EN" "http://www.w3.org/Graphics/SVG/1.1/DTD/svg11.dtd"><svg t="1733064499584" class="icon" viewBox="0 0 1024 1024" version="1.1" xmlns="http://www.w3.org/2000/svg" p-id="5186" xmlns:xlink="http://www.w3.org/1999/xlink" width="200" height="200"><path d="M881.5616 534.8352c-97.00864-41.984-180.05504 2.29888-210.55488 17.36192-30.4896 15.05792-74.97728 53.28384-94.8224 71.30624-19.8144 17.98656-29.38368 29.3888-38.93248 38.20544-9.55904 8.82176-13.97248 10.65472-16.18944 12.48256-2.19648 1.8432-0.72192 6.25664 0 12.87168 0.75776 6.60992 22.05184 9.18528 46.31552 12.11904 24.25344 2.944 17.64864 23.15264 9.5744 33.0752-25.37472 29.76256-51.10272 34.53952-63.57504 32.3328-12.51328-2.2016-13.24544-15.0528-11.4176-40.79104 1.8432-25.71776 2.23232-47.40608 0.75264-64.67072-1.47968-17.26976 3.67104-37.11488 8.81664-51.08224 5.13536-13.96224 17.61792-33.06496 22.21568-38.5792 4.608-5.50912 12.68224-15.06816 21.86752-16.17408 9.18016-1.1008 65.04448-16.15872 135.59296-32.3328 70.54848-16.16896 85.62688-11.38176 91.4944-37.4784 5.89312-26.10176-38.9376-61.0048-38.9376-61.0048s16.896-13.2352 53.27872-35.64544c36.3776-22.41024 68.71552-50.70848 49.60768-89.65632-19.11808-38.95296-62.83776-25.37472-109.8752-4.0448-47.03744 21.30944-162.42176 102.51776-171.98592 108.02688-9.53344 5.5296-9.9072-1.83296-10.2912-7.71072 1.8432-17.63328-4.39808-18.00704-8.43264-22.40512-4.05504-4.4288-7.71584-7.36256-7.71584-24.6272 0-17.27488 9.5488-24.25344 13.94176-25.35424 4.4288-1.09568 19.11808 2.2016 39.69536 1.1008 20.58752-1.1008 39.69024-12.86656 69.44768-29.39904 29.76768-16.5376 79.01184-51.43552 127.16032-55.48032 48.12288-4.0448 27.19232-39.31648 23.14752-49.24416-4.05504-9.92256-8.07936-19.0976-9.92256-36.37248-1.82784-17.27488-2.5856-18.01216-17.62816-40.05376-15.08352-22.04672-81.9456-16.5376-142.208 12.86656-60.26752 29.39904-87.46496 40.41728-105.8304 33.07008-18.37568-7.35744-1.10592-38.21568-36.75136-26.46528s-42.24512 47.77472-30.86336 92.96384c11.38688 45.2096 33.07008 51.456 33.42336 63.21664 0.384 11.74528-6.59968 17.99168-19.0976 43.34592-12.4928 25.36448-9.92256 77.90592-0.73728 88.9344 11.392 15.43168 3.30752 19.0976-4.77184 27.55584-8.09472 8.45312-56.95488 45.56288-67.98336 54.016-11.02848 8.45824-18.36544 11.02336-9.55392-6.24128 8.8064-17.27488 46.67392-23.89504 27.56096-85.632-19.10784-61.72672-101.05344-27.91936-137.43616-12.8512-36.38272 15.07328-90.02496 55.1168-103.25504 63.93344-5.86752-14.69952 12.86656-39.3216 22.42048-48.87552 9.55392-9.55392 40.05376-23.14752 56.58112-36.3776 16.54272-13.23008 33.07008-35.6352 48.50688-46.28992 15.4368-10.66496 24.63232-9.92768 37.48352-5.89312 12.86144 4.04992 37.4784 8.82688 51.08224 8.82688 56.58112 1.83296 66.5088-22.42048 57.69216-97.74592-8.82688-75.33056-42.63936-109.51168-56.96-118.69184-14.336-9.18016-116.864-40.04352-132.66432-5.87264-15.80032 34.176-15.80032 53.64736-15.80032 112.80896 0 59.15648 39.68512 76.42624 39.68512 76.42624-8.08448 20.57216-77.9008 65.408-91.12064 74.9568-108.7744 68.71552-114.2784 95.17056-123.84768 109.5168-9.55392 14.32576-0.36352 46.66368 15.06304 76.06272 15.4368 29.39904 97.3824 38.94272 101.05344 40.064 4.39808 4.77184-38.95296 31.95904-50.70848 40.40704-11.75552 8.45312-30.86336 33.0752-48.13824 41.9072-17.27488 8.81664-29.02528 18.73408-34.17088 26.43968-19.48672 31.61088-4.40832 59.904 13.58848 82.31936 18.00704 22.4 33.07008 50.33984 65.408 55.12192 32.32768 4.78208 65.0496-19.84512 84.88448-39.3216a1533.86496 1533.86496 0 0 1 42.99776-40.42752c4.40832 0.37888 8.82176 40.78592 8.08448 80.85504-0.73728 40.04352 4.04992 64.30208 22.42048 74.58816 30.4896 27.19744 68.71552 11.01824 84.89472 1.82272 16.16384-9.1904 2.93376-68.34176-1.47456-101.41696-4.40832-33.06496-5.50912-55.85408-5.51936-94.7968 0-38.94784 12.12928-56.58624 15.07328-56.58624 2.93376-0.01536 7.35744 76.05248 13.96224 119.41376 6.61504 43.36128 20.57728 32.70144 33.06496 56.95488 12.49792 24.2432 20.95616 35.64544 40.064 46.30528 19.10784 10.6496 27.9296 23.87456 66.12992 33.4336 38.2208 9.5488 78.63296-10.65984 95.55456-13.58336 16.90112-2.944 24.62208 0.3584 56.95488 14.31552 32.3328 13.97248 62.22336 10.54208 99.42528-4.34688 80.19968-52.92544 127.32928-138.88512 157.91104-201.728 30.59712-62.81216 22.29248-144.1024-74.70592-186.08128z m-206.70976-150.74816c-10.45504 9.92256-76.0576 89.8304-83.22048 94.23872-3.30752-8.25344-22.04672-31.96416-22.04672-31.96416 40.22784-37.47328 87.63904-56.22784 105.2672-62.27456zM470.72768 591.1552c-3.67104 4.4032-8.07936 11.7504-13.95712 6.24128-5.888-5.50912 5.50912-16.15872 8.44288-19.83488 2.92864-3.68128 4.41856-9.42592 3.67104-17.01888-0.74752-7.6032 9.93792-20.28544 15.80032-25.71264 5.87264-5.41696 9.56416-13.12256 9.56416-13.12256h4.02432s8.82688 15.06816 33.42848 19.10272c0.75264 2.21184-21.65248 12.12928-37.46304 26.44992-15.7952 14.336-19.82464 19.48672-23.51104 23.89504z m87.8336 298.74688c-6.98368 0.00512-22.05696-0.7424-20.95104-11.392 1.1008-10.65984 1.4592-19.47648-6.61504-24.25856-8.09472-4.75648-16.896-15.05792-13.95712-22.77888 3.79904-9.984 9.53856-4.03456 12.48256-1.83296l2.944 2.21184s11.38176 8.43264 18.00192 8.07936c6.62016-0.3584 12.12928-8.45312 16.91648 12.48768 4.7872 20.9408-1.84832 37.48352-8.82176 37.48352z m192.55296-50.7136c-1.4848 4.03456-6.62016 6.2464-15.06304 9.92256-8.46336 3.67616-16.17408 14.6944-20.58752 17.61792l-4.39296 2.95424s-15.82592 3.94752-15.81568-11.8016c-0.01024-15.75424 8.45312-73.08288 18.73408-81.17248 4.79744-3.75808 20.9408-2.57536 43.74016-11.75552 6.23616-3.31264 19.47136-4.78208 20.9408 2.57536-1.83808 6.97856-26.09664 67.61472-27.55584 71.65952z m77.15328-178.5856c-3.66592 3.66592-11.0336 15.42144-18.36544 45.93152-7.36768 30.49984-9.92256 32.3328-15.44192 36.37248-4.41344 0.74752-13.97248-4.77184-18.37056-11.74016-4.40832-6.99392-11.01824-9.56928-15.44192-11.02848-4.41856-1.4848-26.3168 6.02112-30.4896 1.83296-26.09152-26.09664-34.53952-66.88256-34.9184-72.39168-0.37376-5.50912 41.52832-20.95104 53.30432-23.53152 11.74528-2.57024 45.18912 8.832 61.35296 16.54784 16.16896 7.72096 22.05184 14.33088 18.37056 18.00704z" fill="#C01E20" p-id="5187"></path></svg>